<?xml version="1.0" encoding="utf-8"?>
<!-- Generator: Adobe Illustrator 22.0.1, SVG Export Plug-In . SVG Version: 6.00 Build 0)  -->
<svg version="1.1" id="Layer_1" xmlns="http://www.w3.org/2000/svg" xmlns:xlink="http://www.w3.org/1999/xlink" x="0px" y="0px"
	 viewBox="0 0 434.3 157.9" style="enable-background:new 0 0 434.3 157.9;" xml:space="preserve">
<style type="text/css">
	.st0{fill:#FBAC00;}
	.st1{fill:url(#SVGID_1_);}
	.st2{fill:url(#SVGID_2_);}
	.st3{fill:url(#SVGID_3_);}
	.st4{fill:url(#SVGID_4_);}
	.st5{fill:url(#SVGID_5_);}
	.st6{fill:url(#SVGID_6_);}
	.st7{fill:url(#SVGID_7_);}
	.st8{fill:url(#SVGID_8_);}
	.st9{fill:url(#SVGID_9_);}
	.st10{fill:url(#SVGID_10_);}
	.st11{fill:url(#SVGID_11_);}
	.st12{fill:url(#SVGID_12_);}
	.st13{fill:url(#SVGID_13_);}
	.st14{fill:url(#SVGID_14_);}
	.st15{fill:url(#SVGID_15_);}
</style>
<g>
	<g>
		<g>
			<path class="st0" d="M194.2,152.4v-7.5c-3.8,5.1-10,8.8-17.1,8.8c-13.2,0-22.5-10.1-22.5-26.5c0-16.1,9.2-26.6,22.5-26.6
				c6.8,0,13,3.4,17.1,8.9V82.5h7.9v69.9H194.2z M194.2,138.7v-22.9c-2.8-4.4-8.9-8.2-15.2-8.2c-10.2,0-16.2,8.4-16.2,19.6
				s6.1,19.5,16.2,19.5C185.3,146.6,191.3,143.1,194.2,138.7z"/>
			<path class="st0" d="M212.8,127c0-14.7,10.5-26.5,24.9-26.5c15.3,0,24.3,11.9,24.3,27.1v2h-41c0.6,9.5,7.3,17.5,18.2,17.5
				c5.8,0,11.6-2.3,15.6-6.4l3.8,5.1c-5,5-11.8,7.8-20.1,7.8C223.6,153.6,212.8,142.9,212.8,127z M237.7,107
				c-10.8,0-16.1,9.1-16.6,16.9h33.2C254.2,116.4,249.2,107,237.7,107z"/>
			<path class="st0" d="M272.6,152.4V82.5h7.9v26.9c4.1-5.6,10.2-8.9,17.1-8.9c13.2,0,22.5,10.5,22.5,26.6
				c0,16.4-9.3,26.5-22.5,26.5c-7.1,0-13.3-3.7-17.1-8.8v7.5H272.6z M295.6,146.6c10.3,0,16.3-8.3,16.3-19.5s-6.1-19.6-16.3-19.6
				c-6.2,0-12.4,3.8-15.1,8.2v22.9C283.2,143.1,289.4,146.6,295.6,146.6z"/>
			<path class="st0" d="M328.3,127c0-14.7,9.6-26.5,25-26.5c15.4,0,25,11.8,25,26.5s-9.6,26.6-25,26.6
				C337.9,153.6,328.3,141.7,328.3,127z M370.1,127c0-10.3-6-19.5-16.8-19.5s-16.9,9.2-16.9,19.5c0,10.4,6.1,19.6,16.9,19.6
				S370.1,137.4,370.1,127z"/>
			<path class="st0" d="M420,152.4l-15.2-20.7l-15.2,20.7h-9l19.4-26l-18.3-24.6h9.1l14,19.3l14-19.3h9.1l-18.3,24.6l19.5,26H420z"
				/>
		</g>
		<circle class="st0" cx="146.6" cy="12.5" r="8.1"/>
		<circle class="st0" cx="125.7" cy="33.5" r="8.1"/>
		<circle class="st0" cx="104.7" cy="12.6" r="8.1"/>
		<circle class="st0" cx="146.8" cy="54.6" r="8.1"/>
		<circle class="st0" cx="119.9" cy="81.9" r="8.1"/>
		<circle class="st0" cx="98.7" cy="60.9" r="8.1"/>
		<circle class="st0" cx="77.8" cy="39.9" r="8.1"/>
		<circle class="st0" cx="56.8" cy="60.9" r="8.1"/>
		<circle class="st0" cx="98.8" cy="102.9" r="8.1"/>
		<path class="st0" d="M77.5,8.1L3.3,82.3l74.2,74.2l74.2-74.2L77.5,8.1z M11.6,82.3l65.8-65.8l65.8,65.8l-65.8,65.8L11.6,82.3z"/>
	</g>
	<g>
		<g>
			<linearGradient id="SVGID_1_" gradientUnits="userSpaceOnUse" x1="25.4365" y1="-2.1057" x2="394.3249" y2="210.872">
				<stop  offset="0" style="stop-color:#FFE400"/>
				<stop  offset="1" style="stop-color:#FFB500"/>
			</linearGradient>
			<path class="st1" d="M194.2,152.4v-7.5c-3.8,5.1-10,8.8-17.1,8.8c-13.2,0-22.5-10.1-22.5-26.5c0-16.1,9.2-26.6,22.5-26.6
				c6.8,0,13,3.4,17.1,8.9V82.5h7.9v69.9H194.2z M194.2,138.7v-22.9c-2.8-4.4-8.9-8.2-15.2-8.2c-10.2,0-16.2,8.4-16.2,19.6
				s6.1,19.5,16.2,19.5C185.3,146.6,191.3,143.1,194.2,138.7z"/>
			<linearGradient id="SVGID_2_" gradientUnits="userSpaceOnUse" x1="25.4365" y1="-2.1057" x2="394.3249" y2="210.872">
				<stop  offset="0" style="stop-color:#FFE400"/>
				<stop  offset="1" style="stop-color:#FFB500"/>
			</linearGradient>
			<path class="st2" d="M212.8,127c0-14.7,10.5-26.5,24.9-26.5c15.3,0,24.3,11.9,24.3,27.1v2h-41c0.6,9.5,7.3,17.5,18.2,17.5
				c5.8,0,11.6-2.3,15.6-6.4l3.8,5.1c-5,5-11.8,7.8-20.1,7.8C223.6,153.6,212.8,142.9,212.8,127z M237.7,107
				c-10.8,0-16.1,9.1-16.6,16.9h33.2C254.2,116.4,249.2,107,237.7,107z"/>
			<linearGradient id="SVGID_3_" gradientUnits="userSpaceOnUse" x1="25.4365" y1="-2.1057" x2="394.3249" y2="210.872">
				<stop  offset="0" style="stop-color:#FFE400"/>
				<stop  offset="1" style="stop-color:#FFB500"/>
			</linearGradient>
			<path class="st3" d="M272.6,152.4V82.5h7.9v26.9c4.1-5.6,10.2-8.9,17.1-8.9c13.2,0,22.5,10.5,22.5,26.6
				c0,16.4-9.3,26.5-22.5,26.5c-7.1,0-13.3-3.7-17.1-8.8v7.5H272.6z M295.6,146.6c10.3,0,16.3-8.3,16.3-19.5s-6.1-19.6-16.3-19.6
				c-6.2,0-12.4,3.8-15.1,8.2v22.9C283.2,143.1,289.4,146.6,295.6,146.6z"/>
			<linearGradient id="SVGID_4_" gradientUnits="userSpaceOnUse" x1="25.4365" y1="-2.1057" x2="394.3249" y2="210.872">
				<stop  offset="0" style="stop-color:#FFE400"/>
				<stop  offset="1" style="stop-color:#FFB500"/>
			</linearGradient>
			<path class="st4" d="M328.3,127c0-14.7,9.6-26.5,25-26.5c15.4,0,25,11.8,25,26.5s-9.6,26.6-25,26.6
				C337.9,153.6,328.3,141.7,328.3,127z M370.1,127c0-10.3-6-19.5-16.8-19.5s-16.9,9.2-16.9,19.5c0,10.4,6.1,19.6,16.9,19.6
				S370.1,137.4,370.1,127z"/>
			<linearGradient id="SVGID_5_" gradientUnits="userSpaceOnUse" x1="25.4365" y1="-2.1057" x2="394.3249" y2="210.872">
				<stop  offset="0" style="stop-color:#FFE400"/>
				<stop  offset="1" style="stop-color:#FFB500"/>
			</linearGradient>
			<path class="st5" d="M420,152.4l-15.2-20.7l-15.2,20.7h-9l19.4-26l-18.3-24.6h9.1l14,19.3l14-19.3h9.1l-18.3,24.6l19.5,26H420z"
				/>
		</g>
		<linearGradient id="SVGID_6_" gradientUnits="userSpaceOnUse" x1="25.4365" y1="-2.1057" x2="394.3249" y2="210.872">
			<stop  offset="0" style="stop-color:#FFE400"/>
			<stop  offset="1" style="stop-color:#FFB500"/>
		</linearGradient>
		<circle class="st6" cx="146.6" cy="12.5" r="8.1"/>
		<linearGradient id="SVGID_7_" gradientUnits="userSpaceOnUse" x1="25.4365" y1="-2.1057" x2="394.3249" y2="210.872">
			<stop  offset="0" style="stop-color:#FFE400"/>
			<stop  offset="1" style="stop-color:#FFB500"/>
		</linearGradient>
		<circle class="st7" cx="125.7" cy="33.5" r="8.1"/>
		<linearGradient id="SVGID_8_" gradientUnits="userSpaceOnUse" x1="25.4365" y1="-2.1057" x2="394.3249" y2="210.872">
			<stop  offset="0" style="stop-color:#FFE400"/>
			<stop  offset="1" style="stop-color:#FFB500"/>
		</linearGradient>
		<circle class="st8" cx="104.7" cy="12.6" r="8.1"/>
		<linearGradient id="SVGID_9_" gradientUnits="userSpaceOnUse" x1="25.4365" y1="-2.1057" x2="394.3249" y2="210.872">
			<stop  offset="0" style="stop-color:#FFE400"/>
			<stop  offset="1" style="stop-color:#FFB500"/>
		</linearGradient>
		<circle class="st9" cx="146.8" cy="54.6" r="8.1"/>
		<linearGradient id="SVGID_10_" gradientUnits="userSpaceOnUse" x1="25.4365" y1="-2.1057" x2="394.3249" y2="210.872">
			<stop  offset="0" style="stop-color:#FFE400"/>
			<stop  offset="1" style="stop-color:#FFB500"/>
		</linearGradient>
		<circle class="st10" cx="119.9" cy="81.9" r="8.1"/>
		<linearGradient id="SVGID_11_" gradientUnits="userSpaceOnUse" x1="25.4365" y1="-2.1057" x2="394.3249" y2="210.872">
			<stop  offset="0" style="stop-color:#FFE400"/>
			<stop  offset="1" style="stop-color:#FFB500"/>
		</linearGradient>
		<circle class="st11" cx="98.7" cy="60.9" r="8.1"/>
		<linearGradient id="SVGID_12_" gradientUnits="userSpaceOnUse" x1="25.4365" y1="-2.1057" x2="394.3249" y2="210.872">
			<stop  offset="0" style="stop-color:#FFE400"/>
			<stop  offset="1" style="stop-color:#FFB500"/>
		</linearGradient>
		<circle class="st12" cx="77.8" cy="39.9" r="8.1"/>
		<linearGradient id="SVGID_13_" gradientUnits="userSpaceOnUse" x1="25.4365" y1="-2.1057" x2="394.3249" y2="210.872">
			<stop  offset="0" style="stop-color:#FFE400"/>
			<stop  offset="1" style="stop-color:#FFB500"/>
		</linearGradient>
		<circle class="st13" cx="56.8" cy="60.9" r="8.1"/>
		<linearGradient id="SVGID_14_" gradientUnits="userSpaceOnUse" x1="25.4365" y1="-2.1057" x2="394.3249" y2="210.872">
			<stop  offset="0" style="stop-color:#FFE400"/>
			<stop  offset="1" style="stop-color:#FFB500"/>
		</linearGradient>
		<circle class="st14" cx="98.8" cy="102.9" r="8.1"/>
		<linearGradient id="SVGID_15_" gradientUnits="userSpaceOnUse" x1="25.4365" y1="-2.1057" x2="394.3249" y2="210.872">
			<stop  offset="0" style="stop-color:#FFE400"/>
			<stop  offset="1" style="stop-color:#FFB500"/>
		</linearGradient>
		<path class="st15" d="M77.5,8.1L3.3,82.3l74.2,74.2l74.2-74.2L77.5,8.1z M11.6,82.3l65.8-65.8l65.8,65.8l-65.8,65.8L11.6,82.3z"/>
	</g>
</g>
</svg>
